<svg width="70" height="59" viewBox="0 0 70 59" fill="none" xmlns="http://www.w3.org/2000/svg">
<path d="M64.523 28.6876C64.5282 28.6389 64.5312 28.5895 64.5312 28.5394V20.444V9.87893V5.65796C64.5312 2.53824 62.0021 0 58.8935 0H37.9623C37.2072 0 36.5951 0.614286 36.5951 1.37209C36.5951 2.1299 37.2072 2.74419 37.9623 2.74419H58.8935C60.4945 2.74419 61.7969 4.05124 61.7969 5.65796V8.50698H2.73438V5.65796C2.73438 4.05124 4.03676 2.74419 5.63773 2.74419H26.5234C27.2785 2.74419 27.8906 2.1299 27.8906 1.37209C27.8906 0.614286 27.2785 0 26.5234 0H5.63773C2.52916 0 0 2.53824 0 5.65796V9.87907V20.4442V40.4489C0 43.5686 2.52916 46.1067 5.63773 46.1067H35.6348C37.1213 51.4781 41.1132 55.9608 46.4829 57.9339C46.6381 57.991 46.7968 58.018 46.9529 58.018C47.5104 58.018 48.0341 57.6732 48.2368 57.1174C48.4965 56.4056 48.1321 55.6177 47.4231 55.3571C41.628 53.2276 37.7344 47.6336 37.7344 41.4372C37.7344 33.2663 44.3583 26.6186 52.5 26.6186C60.6417 26.6186 67.2656 33.2663 67.2656 41.4372C67.2656 47.5296 63.6252 52.931 57.9913 55.1977C57.2905 55.4796 56.9501 56.2783 57.231 56.9818C57.512 57.6853 58.3077 58.0268 59.0088 57.7448C62.2161 56.4544 64.9515 54.2576 66.9192 51.3922C68.9347 48.4568 70 45.0145 70 41.4372C70 36.4217 67.8938 31.8909 64.523 28.6876ZM61.7969 26.5644C59.1015 24.8614 55.9136 23.8744 52.5 23.8744C42.8504 23.8744 35 31.753 35 41.4372C35 42.0855 35.0379 42.7278 35.1081 43.3625H5.63773C4.03689 43.3625 2.73438 42.0555 2.73438 40.4489V21.8163H61.7969V26.5644ZM61.7969 19.0721H2.73438V11.2512H61.7969V19.0721Z" fill="black"/>
<path d="M64.523 28.6876C64.5282 28.6389 64.5312 28.5895 64.5312 28.5394V20.444V9.87893V5.65796C64.5312 2.53824 62.0021 0 58.8935 0H37.9623C37.2072 0 36.5951 0.614286 36.5951 1.37209C36.5951 2.1299 37.2072 2.74419 37.9623 2.74419H58.8935C60.4945 2.74419 61.7969 4.05124 61.7969 5.65796V8.50698H2.73438V5.65796C2.73438 4.05124 4.03676 2.74419 5.63773 2.74419H26.5234C27.2785 2.74419 27.8906 2.1299 27.8906 1.37209C27.8906 0.614286 27.2785 0 26.5234 0H5.63773C2.52916 0 0 2.53824 0 5.65796V9.87907V20.4442V40.4489C0 43.5686 2.52916 46.1067 5.63773 46.1067H35.6348C37.1213 51.4781 41.1132 55.9608 46.4829 57.9339C46.6381 57.991 46.7968 58.018 46.9529 58.018C47.5104 58.018 48.0341 57.6732 48.2368 57.1174C48.4965 56.4056 48.1321 55.6177 47.4231 55.3571C41.628 53.2276 37.7344 47.6336 37.7344 41.4372C37.7344 33.2663 44.3583 26.6186 52.5 26.6186C60.6417 26.6186 67.2656 33.2663 67.2656 41.4372C67.2656 47.5296 63.6252 52.931 57.9913 55.1977C57.2905 55.4796 56.9501 56.2783 57.231 56.9818C57.512 57.6853 58.3077 58.0268 59.0088 57.7448C62.2161 56.4544 64.9515 54.2576 66.9192 51.3922C68.9347 48.4568 70 45.0145 70 41.4372C70 36.4217 67.8938 31.8909 64.523 28.6876ZM61.7969 26.5644C59.1015 24.8614 55.9136 23.8744 52.5 23.8744C42.8504 23.8744 35 31.753 35 41.4372C35 42.0855 35.0379 42.7278 35.1081 43.3625H5.63773C4.03689 43.3625 2.73438 42.0555 2.73438 40.4489V21.8163H61.7969V26.5644ZM61.7969 19.0721H2.73438V11.2512H61.7969V19.0721Z" fill="url(#paint0_linear_4_191)"/>
<defs>
<linearGradient id="paint0_linear_4_191" x1="35" y1="0" x2="35" y2="58.018" gradientUnits="userSpaceOnUse">
<stop stop-color="#F2A04A"/>
<stop offset="1" stop-color="#F2C24D"/>
</linearGradient>
</defs>
</svg>
