<svg width="61" height="64" viewBox="0 0 61 64" fill="none" xmlns="http://www.w3.org/2000/svg">
<path d="M60.4612 14.1214L30.9145 0.0931874C30.6525 -0.0310625 30.3475 -0.0310625 30.0857 0.0931874L0.538778 14.1214C0.209334 14.2778 -5.23637e-08 14.6059 -5.23637e-08 14.9657V49.0343C-5.23637e-08 49.394 0.209334 49.7221 0.538778 49.8785L30.0855 63.9067C30.2164 63.9689 30.3583 64 30.5 64C30.6417 64 30.7834 63.9689 30.9145 63.9067L60.4612 49.8785C60.7907 49.7221 61 49.394 61 49.0343V14.9658C61 14.6058 60.7905 14.2779 60.4612 14.1214ZM30.5 1.97856L57.8541 14.9657L49.9247 18.7304C49.8745 18.6928 49.8215 18.658 49.7633 18.6304L22.595 5.73168L30.5 1.97856ZM20.4422 6.79168L47.7565 19.7599L42.1622 22.416L14.8592 9.45305L20.4422 6.79168ZM48.3956 21.5384V31.3567L43.1701 33.8377V24.0194L48.3956 21.5384ZM59.0935 48.446L31.4533 61.5688V29.5823L38.0463 26.452C38.5204 26.2269 38.7192 25.6665 38.4903 25.2002C38.2614 24.734 37.6916 24.5383 37.2174 24.7635L30.5 27.9529L27.8568 26.6979C27.3826 26.4725 26.8128 26.6683 26.5839 27.1345C26.355 27.6008 26.5538 28.1613 27.0279 28.3864L29.5467 29.5823V61.5688L1.9065 48.4458V16.4593L22.9543 26.4524C23.0879 26.5159 23.2291 26.5459 23.368 26.5459C23.7224 26.5459 24.0628 26.3507 24.2271 26.0158C24.456 25.5495 24.2572 24.989 23.7831 24.7639L3.14586 14.9657L12.6155 10.4697L41.2504 24.065C41.2546 24.0708 41.2593 24.0759 41.2636 24.0815V35.3314C41.2636 35.654 41.4323 35.9539 41.7101 36.1255C41.8644 36.2208 42.0405 36.2689 42.217 36.2689C42.3583 36.2689 42.5 36.238 42.6313 36.1757L49.7633 32.7895C50.0928 32.6332 50.3021 32.3052 50.3021 31.9453V20.6334L59.0935 16.4594V48.446Z" fill="white"/>
</svg>
