<svg width="49" height="62" viewBox="0 0 49 62" fill="none" xmlns="http://www.w3.org/2000/svg">
<path d="M48.2513 0.0924206C47.7982 -0.0951532 47.2764 0.00862389 46.9295 0.35483L43.1297 4.14857L39.33 0.35483C39.1026 0.12778 38.794 0.00014734 38.4724 0.00014734C38.1507 0.00014734 37.8423 0.12778 37.6147 0.35483L33.8148 4.14857L30.0151 0.35483C29.7876 0.12778 29.4792 0.00014734 29.1575 0.00014734C28.8358 0.00014734 28.5274 0.12778 28.2999 0.35483L24.4999 4.14857L20.7001 0.35483C20.4726 0.12778 20.1642 0.00014734 19.8425 0.00014734C19.5208 0.00014734 19.2124 0.12778 18.9849 0.35483L15.1851 4.14857L11.3853 0.35483C11.1577 0.12778 10.8493 0.00014734 10.5276 0.00014734C10.206 0.00014734 9.89742 0.12778 9.67 0.35483L5.87031 4.14845L2.0705 0.354709C1.72362 0.00838169 1.20184 -0.0952743 0.748707 0.0922995C0.295577 0.279752 -6.66252e-08 0.72138 -6.66252e-08 1.21108V25.0059C-6.66252e-08 25.6747 0.543125 26.2169 1.21287 26.2169C1.88262 26.2169 2.42575 25.6747 2.42575 25.0059V4.13452L5.01269 6.71732C5.24022 6.94437 5.54866 7.07201 5.87031 7.07201C6.19197 7.07201 6.5004 6.94437 6.72794 6.71732L10.5276 2.92359L14.3276 6.71732C14.5551 6.94437 14.8635 7.07201 15.1852 7.07201C15.5068 7.07201 15.8154 6.94437 16.0428 6.71732L19.8425 2.92359L23.6422 6.71732C24.1161 7.19019 24.8838 7.19019 25.3576 6.71732L29.1574 2.92359L32.9571 6.71732C33.1845 6.94437 33.493 7.07201 33.8147 7.07201C34.1363 7.07201 34.4448 6.94437 34.6723 6.71732L38.4721 2.92359L42.2718 6.71732C42.4994 6.94437 42.8078 7.07201 43.1294 7.07201C43.4511 7.07201 43.7595 6.94437 43.9871 6.71732L46.574 4.13452V57.8656L43.9871 55.2828C43.7595 55.0558 43.4511 54.9281 43.1294 54.9281C42.8078 54.9281 42.4994 55.0558 42.2718 55.2828L38.4721 59.0766L34.6723 55.2828C34.4448 55.0558 34.1363 54.9281 33.8147 54.9281C33.493 54.9281 33.1845 55.0558 32.9571 55.2828L29.1574 59.0766L25.3576 55.2828C24.8837 54.81 24.1159 54.81 23.6422 55.2828L19.8424 59.0766L16.0427 55.2828C15.8153 55.0558 15.5067 54.9281 15.1851 54.9281C14.8634 54.9281 14.555 55.0558 14.3274 55.2828L10.5276 59.0766L6.72794 55.2828C6.5004 55.0558 6.19197 54.9281 5.87031 54.9281C5.54866 54.9281 5.24022 55.0558 5.01269 55.2828L2.42599 57.8655V36.3281C2.42599 35.6593 1.88287 35.1171 1.21312 35.1171C0.543367 35.1171 0.000242375 35.6593 0.000242375 36.3281V60.7889C0.000242375 61.2788 0.29582 61.7203 0.74895 61.9077C1.20208 62.0953 1.72386 61.9915 2.07074 61.6453L5.87055 57.8516L9.67025 61.6453C9.89766 61.8724 10.2062 62 10.5279 62C10.8495 62 11.158 61.8724 11.3855 61.6453L15.1853 57.8516L18.985 61.6453C19.2125 61.8724 19.521 62 19.8426 62C20.1643 62 20.4727 61.8724 20.7002 61.6453L24.5001 57.8516L28.2999 61.6453C28.5274 61.8724 28.8358 62 29.1575 62C29.4792 62 29.7876 61.8724 30.0151 61.6453L33.8148 57.8516L37.6147 61.6453C37.8423 61.8724 38.1507 62 38.4724 62C38.794 62 39.1026 61.8724 39.33 61.6453L43.1297 57.8516L46.9296 61.6453C47.1616 61.877 47.4718 62 47.7875 62C47.9437 62 48.1014 61.9698 48.2513 61.908C48.7044 61.7205 49 61.2789 49 60.7892V1.2112C49 0.72138 48.7044 0.279873 48.2513 0.0924206Z" fill="black"/>
<path d="M48.2513 0.0924206C47.7982 -0.0951532 47.2764 0.00862389 46.9295 0.35483L43.1297 4.14857L39.33 0.35483C39.1026 0.12778 38.794 0.00014734 38.4724 0.00014734C38.1507 0.00014734 37.8423 0.12778 37.6147 0.35483L33.8148 4.14857L30.0151 0.35483C29.7876 0.12778 29.4792 0.00014734 29.1575 0.00014734C28.8358 0.00014734 28.5274 0.12778 28.2999 0.35483L24.4999 4.14857L20.7001 0.35483C20.4726 0.12778 20.1642 0.00014734 19.8425 0.00014734C19.5208 0.00014734 19.2124 0.12778 18.9849 0.35483L15.1851 4.14857L11.3853 0.35483C11.1577 0.12778 10.8493 0.00014734 10.5276 0.00014734C10.206 0.00014734 9.89742 0.12778 9.67 0.35483L5.87031 4.14845L2.0705 0.354709C1.72362 0.00838169 1.20184 -0.0952743 0.748707 0.0922995C0.295577 0.279752 -6.66252e-08 0.72138 -6.66252e-08 1.21108V25.0059C-6.66252e-08 25.6747 0.543125 26.2169 1.21287 26.2169C1.88262 26.2169 2.42575 25.6747 2.42575 25.0059V4.13452L5.01269 6.71732C5.24022 6.94437 5.54866 7.07201 5.87031 7.07201C6.19197 7.07201 6.5004 6.94437 6.72794 6.71732L10.5276 2.92359L14.3276 6.71732C14.5551 6.94437 14.8635 7.07201 15.1852 7.07201C15.5068 7.07201 15.8154 6.94437 16.0428 6.71732L19.8425 2.92359L23.6422 6.71732C24.1161 7.19019 24.8838 7.19019 25.3576 6.71732L29.1574 2.92359L32.9571 6.71732C33.1845 6.94437 33.493 7.07201 33.8147 7.07201C34.1363 7.07201 34.4448 6.94437 34.6723 6.71732L38.4721 2.92359L42.2718 6.71732C42.4994 6.94437 42.8078 7.07201 43.1294 7.07201C43.4511 7.07201 43.7595 6.94437 43.9871 6.71732L46.574 4.13452V57.8656L43.9871 55.2828C43.7595 55.0558 43.4511 54.9281 43.1294 54.9281C42.8078 54.9281 42.4994 55.0558 42.2718 55.2828L38.4721 59.0766L34.6723 55.2828C34.4448 55.0558 34.1363 54.9281 33.8147 54.9281C33.493 54.9281 33.1845 55.0558 32.9571 55.2828L29.1574 59.0766L25.3576 55.2828C24.8837 54.81 24.1159 54.81 23.6422 55.2828L19.8424 59.0766L16.0427 55.2828C15.8153 55.0558 15.5067 54.9281 15.1851 54.9281C14.8634 54.9281 14.555 55.0558 14.3274 55.2828L10.5276 59.0766L6.72794 55.2828C6.5004 55.0558 6.19197 54.9281 5.87031 54.9281C5.54866 54.9281 5.24022 55.0558 5.01269 55.2828L2.42599 57.8655V36.3281C2.42599 35.6593 1.88287 35.1171 1.21312 35.1171C0.543367 35.1171 0.000242375 35.6593 0.000242375 36.3281V60.7889C0.000242375 61.2788 0.29582 61.7203 0.74895 61.9077C1.20208 62.0953 1.72386 61.9915 2.07074 61.6453L5.87055 57.8516L9.67025 61.6453C9.89766 61.8724 10.2062 62 10.5279 62C10.8495 62 11.158 61.8724 11.3855 61.6453L15.1853 57.8516L18.985 61.6453C19.2125 61.8724 19.521 62 19.8426 62C20.1643 62 20.4727 61.8724 20.7002 61.6453L24.5001 57.8516L28.2999 61.6453C28.5274 61.8724 28.8358 62 29.1575 62C29.4792 62 29.7876 61.8724 30.0151 61.6453L33.8148 57.8516L37.6147 61.6453C37.8423 61.8724 38.1507 62 38.4724 62C38.794 62 39.1026 61.8724 39.33 61.6453L43.1297 57.8516L46.9296 61.6453C47.1616 61.877 47.4718 62 47.7875 62C47.9437 62 48.1014 61.9698 48.2513 61.908C48.7044 61.7205 49 61.2789 49 60.7892V1.2112C49 0.72138 48.7044 0.279873 48.2513 0.0924206Z" fill="url(#paint0_linear_5_26)"/>
<defs>
<linearGradient id="paint0_linear_5_26" x1="24.5" y1="0" x2="24.5" y2="62" gradientUnits="userSpaceOnUse">
<stop stop-color="#F2A04A"/>
<stop offset="1" stop-color="#F2C24D"/>
</linearGradient>
</defs>
</svg>
