<svg width="52" height="64" viewBox="0 0 52 64" fill="none" xmlns="http://www.w3.org/2000/svg">
<path d="M50.6667 0H5.86665C2.92589 0 0.533386 2.3925 0.533386 5.33337V56.5334H2.66677V5.33337C2.66677 3.56912 4.10252 2.13337 5.86677 2.13337H46.4023C45.7315 3.02513 45.3336 4.13338 45.3336 5.33337V58.6668C45.3336 60.431 43.8978 61.8667 42.1336 61.8667H1.60001V64H42.1335C45.0742 64 47.4669 61.6075 47.4669 58.6666V5.33337C47.4669 3.56912 48.9026 2.13337 50.6669 2.13337C51.2567 2.13337 51.7335 1.6555 51.7335 1.06675C51.7335 0.478 51.2566 0 50.6667 0Z" fill="white"/>
</svg>
