<svg width="77" height="49" viewBox="0 0 77 49" fill="none" xmlns="http://www.w3.org/2000/svg">
<path d="M71.6098 20.7728L69.6158 12.7489C70.161 12.6324 70.57 12.1459 70.57 11.5629V10.2692C70.57 7.4603 68.2984 5.17516 65.5064 5.17516H56.424V2.50664C56.424 1.12442 55.3063 -5.35586e-07 53.9323 -5.35586e-07H7.63565C6.26168 -5.35586e-07 5.14397 1.12442 5.14397 2.50664V24.5002C5.14397 25.17 5.68372 25.7132 6.34966 25.7132C7.01544 25.7132 7.55534 25.1702 7.55534 24.5002V2.50664C7.55534 2.462 7.59128 2.42585 7.63565 2.42585H53.9321C53.9765 2.42585 54.0124 2.462 54.0124 2.50664V24.5005C54.0124 25.1703 54.5522 25.7135 55.2181 25.7135C55.8839 25.7135 56.4238 25.1705 56.4238 24.5005V23.1256H70.6461C70.6473 23.1256 70.6482 23.1259 70.6493 23.1259C70.6505 23.1259 70.6516 23.1257 70.6526 23.1257C72.4027 23.1269 73.8887 24.2825 74.3991 25.8749H70.6502C69.9844 25.8749 69.4445 26.4179 69.4445 27.0878V29.6752C69.4445 31.7708 71.1391 33.4756 73.2222 33.4756H74.5886V38.8122H71.4361C70.4005 35.804 67.558 33.6372 64.2201 33.6372C60.8822 33.6372 58.0395 35.804 57.004 38.8122H56.4235V29.6751C56.4235 29.0053 55.8838 28.4622 55.2178 28.4622C54.552 28.4622 54.0121 29.0052 54.0121 29.6751V38.8119H28.9979C27.9623 35.8037 25.1198 33.6369 21.7819 33.6369C18.4439 33.6369 15.6013 35.8037 14.5658 38.8119H7.63565C7.59128 38.8119 7.55534 38.7757 7.55534 38.7311V36.0627H12.7798C13.4455 36.0627 13.9855 35.5197 13.9855 34.8498C13.9855 34.1799 13.4457 33.6369 12.7798 33.6369H1.20568C0.539903 33.6369 0 34.1799 0 34.8498C0 35.5197 0.539753 36.0627 1.20568 36.0627H5.14412V38.7311C5.14412 40.1133 6.26183 41.2377 7.6358 41.2377H14.1483C14.148 41.2646 14.1462 41.2914 14.1462 41.3185C14.1462 45.5541 17.5717 49 21.7819 49C25.9921 49 29.4175 45.5541 29.4175 41.3185C29.4175 41.2913 29.4157 41.2646 29.4154 41.2377H56.5865C56.5862 41.2646 56.5844 41.2914 56.5844 41.3185C56.5844 45.5541 60.0099 49 64.2201 49C68.4303 49 71.8557 45.5541 71.8557 41.3185C71.8557 41.2913 71.8539 41.2646 71.8536 41.2377H75.7943C76.4601 41.2377 77 40.6947 77 40.0248V27.0875C77.0002 23.8934 74.6575 21.2395 71.6098 20.7728ZM56.424 7.60085H65.5064C66.9689 7.60085 68.1588 8.79789 68.1588 10.2692V10.35H56.424V7.60085ZM56.424 20.6999V12.7757H67.1371L69.1063 20.6999H56.424ZM21.7819 46.5746C18.9011 46.5746 16.5574 44.217 16.5574 41.3188C16.5574 38.4206 18.9011 36.063 21.7819 36.063C24.6626 36.063 27.0063 38.4206 27.0063 41.3188C27.0063 44.217 24.6626 46.5746 21.7819 46.5746ZM64.2204 46.5746C61.3396 46.5746 58.996 44.217 58.996 41.3188C58.996 38.4206 61.3396 36.063 64.2204 36.063C67.1011 36.063 69.4448 38.4206 69.4448 41.3188C69.4448 44.217 67.1011 46.5746 64.2204 46.5746ZM74.5889 31.0497H73.2225C72.469 31.0497 71.856 30.4331 71.856 29.6751V28.3004H74.5888V31.0497H74.5889Z" fill="white"/>
</svg>
